<svg xmlns="http://www.w3.org/2000/svg" viewBox="0 0 14108.23 1000" width="14108.23" height="1000" role="img" aria-label="Atelier Tracker wordmark — ink" xmlns:c2pa="http://c2pa.org/manifest"><metadata><c2pa:manifest>AAAWgmp1bWIAAAAeanVtZGMycGEAEQAQgAAAqgA4m3EDYzJwYQAAABZcanVtYgAAAEdqdW1kYzJtYQARABCAAACqADibcQN1cm46YzJwYToyNDQwMTk5MS1mYjc2LTRmNDEtODhhZS05NDQ4ZjFiNTZmYjAAAAADl2p1bWIAAAApanVtZGMyYXMAEQAQgAAAqgA4m3EDYzJwYS5hc3NlcnRpb25zAAAAALxqdW1iAAAARGp1bWRjYm9yABEAEIAAAKoAOJtxE2MycGEuaW5ncmVkaWVudC52MwAAAAAYYzJzaNNqGvd/xhGtnBx/iv/ahOEAAABwY2JvcqNpZGM6Zm9ybWF0bWltYWdlL3N2Zyt4bWxqaW5zdGFuY2VJRHgseG1wOmlpZDo0NzAxODgxMC0yNDQ3LTRmMWMtYjRmNi1lYTliNzkyNDU5NTJscmVsYXRpb25zaGlwaHBhcmVudE9mAAAB4mp1bWIAAABBanVtZGNib3IAEQAQgAAAqgA4m3ETYzJwYS5hY3Rpb25zLnYyAAAAABhjMnNoHqByoGidNu5z5AgRs3mu/AAAAZljYm9yomdhY3Rpb25zgqJmYWN0aW9ua2MycGEub3BlbmVkanBhcmFtZXRlcnOha2luZ3JlZGllbnRzgaJjdXJseC1zZWxmI2p1bWJmPWMycGEuYXNzZXJ0aW9ucy9jMnBhLmluZ3JlZGllbnQudjNkaGFzaFgg+lmeElUvlOwbzlY6ttwf78ofHlryY7J1HKSDfuhyC8qkZmFjdGlvbngdY29tLmFudGhyb3BpYy5jbGF1ZGUucHJvdmlkZWRqcGFyYW1ldGVyc6F4H2NvbS5hbnRocm9waWMub3JpZ2luLWNvbmZpZGVuY2VndW5rbm93bmtkZXNjcmlwdGlvbnhmQ2xhdWRlIHByb3ZpZGVkIHRoaXMgZmlsZSBhdCB0aGUgcmVxdWVzdCBvZiBhIHVzZXIgYW5kIG1heSBoYXZlIGNyZWF0ZWQgb3IgbW9kaWZpZWQgdGhlIGZpbGUgY29udGVudHMubXNvZnR3YXJlQWdlbnShZG5hbWVmQ2xhdWRlcmFsbEFjdGlvbnNJbmNsdWRlZPUAAADIanVtYgAAAEBqdW1kY2JvcgARABCAAACqADibcRNjMnBhLmhhc2guZGF0YQAAAAAYYzJzaEgP6W40w7QMQJdQLyH2sKsAAACAY2JvcqVjYWxnZnNoYTI1NmNwYWRNAAAAAAAAAAAAAAAAAGRoYXNoWCBtcaL28W2/ZeYKH8ZJBfYYU7Yr7TJgUGe1ChEqZrvoT2RuYW1lbmp1bWJmIG1hbmlmZXN0amV4Y2x1c2lvbnOBomVzdGFydBjbZmxlbmd0aBkeBAAAAj5qdW1iAAAAJ2p1bWRjMmNsABEAEIAAAKoAOJtxA2MycGEuY2xhaW0udjIAAAACD2Nib3KlY2FsZ2ZzaGEyNTZpc2lnbmF0dXJleE1zZWxmI2p1bWJmPS9jMnBhL3VybjpjMnBhOjI0NDAxOTkxLWZiNzYtNGY0MS04OGFlLTk0NDhmMWI1NmZiMC9jMnBhLnNpZ25hdHVyZWppbnN0YW5jZUlEeCx4bXA6aWlkOmZiZWI0ZGNlLTE4MDMtNDA3Yy04MGI0LTAwOTE1OTJlOWU3MnJjcmVhdGVkX2Fzc2VydGlvbnODomN1cmx4LXNlbGYjanVtYmY9YzJwYS5hc3NlcnRpb25zL2MycGEuaW5ncmVkaWVudC52M2RoYXNoWCD6WZ4SVS+U7BvOVjq23B/vyh8eWvJjsnUcpIN+6HILyqJjdXJseCpzZWxmI2p1bWJmPWMycGEuYXNzZXJ0aW9ucy9jMnBhLmFjdGlvbnMudjJkaGFzaFggyQAd0tMoV3/Jf2SsVEEaYt9f9svA/m5QQCM26sKgnKWiY3VybHgpc2VsZiNqdW1iZj1jMnBhLmFzc2VydGlvbnMvYzJwYS5oYXNoLmRhdGFkaGFzaFggekiVfO18gQUZcc/gEKJmltAKcG+/y2dSryvpVLHty1Z0Y2xhaW1fZ2VuZXJhdG9yX2luZm+jZG5hbWVvQW50aHJvcGljIEZpbGVzZ3ZlcnNpb25lMS4wLjBrc3BlY1ZlcnNpb25lMi40LjAAABA4anVtYgAAAChqdW1kYzJjcwARABCAAACqADibcQNjMnBhLnNpZ25hdHVyZQAAABAIY2JvctKEWQISogEmGCFZAgowggIGMIIBjaADAgECAhRA5aAK7sI50L64g/oGQgU9Z1UTADAKBggqhkjOPQQDAzBJMRcwFQYDVQQKEw5BbnRocm9waWMsIFBCQzEuMCwGA1UEAxMlQW50aHJvcGljIENvbnRlbnQgQ3JlZGVudGlhbHMgUm9vdCBDQTAeFw0yNjA4MDcxODQzNTZaFw0yODA4MDYxOTQzNTZaMEQxFzAVBgNVBAoTDkFudGhyb3BpYywgUEJDMSkwJwYDVQQDEyBBbnRocm9waWMgQ2xhdWRlIENvbnRlbnQgU2lnbmluZzBZMBMGByqGSM49AgEGCCqGSM49AwEHA0IABJh6CmvLUBgFFNU0vUKlOVtE6djd17L5SuwX0LemFisBM3dkd/3cyjxFA3Qo5S46fX0/ihY0VZ7mfb9KF703t5OjWDBWMA4GA1UdDwEB/wQEAwIHgDAVBgNVHSUEDjAMBgorBgEEAYPoXgIBMAwGA1UdEwEB/wQCMAAwHwYDVR0jBBgwFoAUzlHiBIFOZFsj+OPEz5o+nMHXXMIwCgYIKoZIzj0EAwMDZwAwZAIwMXMdFJ4BetLLVY7ORuE9noqbbAZOZn/aArXyTwFAZfKrPzxF2vPoJNf1+UCdg1XGAjBwX1zd9WGqYkqmL5SFqw1QySjr1zJfpJM9+1rdDwSPLMOPOjKuiXjoU/pUUeG9RwmhY3BhZFkNngAAAAAAAAAAAAAAAAAAAAAAAAAAAAAAAAAAAAAAAAAAAAAAAAAAAAAAAAAAAAAAAAAAAAAAAAAAAAAAAAAAAAAAAAAAAAAAAAAAAAAAAAAAAAAAAAAAAAAAAAAAAAAAAAAAAAAAAAAAAAAAAAAAAAAAAAAAAAAAAAAAAAAAAAAAAAAAAAAAAAAAAAAAAAAAAAAAAAAAAAAAAAAAAAAAAAAAAAAAAAAAAAAAAAAAAAAAAAAAAAAAAAAAAAAAAAAAAAAAAAAAAAAAAAAAAAAAAAAAAAAAAAAAAAAAAAAAAAAAAAAAAAAAAAAAAAAAAAAAAAAAAAAAAAAAAAAAAAAAAAAAAAAAAAAAAAAAAAAAAAAAAAAAAAAAAAAAAAAAAAAAAAAAAAAAAAAAAAAAAAAAAAAAAAAAAAAAAAAAAAAAAAAAAAAAAAAAAAAAAAAAAAAAAAAAAAAAAAAAAAAAAAAAAAAAAAAAAAAAAAAAAAAAAAAAAAAAAAAAAAAAAAAAAAAAAAAAAAAAAAAAAAAAAAAAAAAAAAAAAAAAAAAAAAAAAAAAAAAAAAAAAAAAAAAAAAAAAAAAAAAAAAAAAAAAAAAAAAAAAAAAAAAAAAAAAAAAAAAAAAAAAAAAAAAAAAAAAAAAAAAAAAAAAAAAAAAAAAAAAAAAAAAAAAAAAAAAAAAAAAAAAAAAAAAAAAAAAAAAAAAAAAAAAAAAAAAAAAAAAAAAAAAAAAAAAAAAAAAAAAAAAAAAAAAAAAAAAAAAAAAAAAAAAAAAAAAAAAAAAAAAAAAAAAAAAAAAAAAAAAAAAAAAAAAAAAAAAAAAAAAAAAAAAAAAAAAAAAAAAAAAAAAAAAAAAAAAAAAAAAAAAAAAAAAAAAAAAAAAAAAAAAAAAAAAAAAAAAAAAAAAAAAAAAAAAAAAAAAAAAAAAAAAAAAAAAAAAAAAAAAAAAAAAAAAAAAAAAAAAAAAAAAAAAAAAAAAAAAAAAAAAAAAAAAAAAAAAAAAAAAAAAAAAAAAAAAAAAAAAAAAAAAAAAAAAAAAAAAAAAAAAAAAAAAAAAAAAAAAAAAAAAAAAAAAAAAAAAAAAAAAAAAAAAAAAAAAAAAAAAAAAAAAAAAAAAAAAAAAAAAAAAAAAAAAAAAAAAAAAAAAAAAAAAAAAAAAAAAAAAAAAAAAAAAAAAAAAAAAAAAAAAAAAAAAAAAAAAAAAAAAAAAAAAAAAAAAAAAAAAAAAAAAAAAAAAAAAAAAAAAAAAAAAAAAAAAAAAAAAAAAAAAAAAAAAAAAAAAAAAAAAAAAAAAAAAAAAAAAAAAAAAAAAAAAAAAAAAAAAAAAAAAAAAAAAAAAAAAAAAAAAAAAAAAAAAAAAAAAAAAAAAAAAAAAAAAAAAAAAAAAAAAAAAAAAAAAAAAAAAAAAAAAAAAAAAAAAAAAAAAAAAAAAAAAAAAAAAAAAAAAAAAAAAAAAAAAAAAAAAAAAAAAAAAAAAAAAAAAAAAAAAAAAAAAAAAAAAAAAAAAAAAAAAAAAAAAAAAAAAAAAAAAAAAAAAAAAAAAAAAAAAAAAAAAAAAAAAAAAAAAAAAAAAAAAAAAAAAAAAAAAAAAAAAAAAAAAAAAAAAAAAAAAAAAAAAAAAAAAAAAAAAAAAAAAAAAAAAAAAAAAAAAAAAAAAAAAAAAAAAAAAAAAAAAAAAAAAAAAAAAAAAAAAAAAAAAAAAAAAAAAAAAAAAAAAAAAAAAAAAAAAAAAAAAAAAAAAAAAAAAAAAAAAAAAAAAAAAAAAAAAAAAAAAAAAAAAAAAAAAAAAAAAAAAAAAAAAAAAAAAAAAAAAAAAAAAAAAAAAAAAAAAAAAAAAAAAAAAAAAAAAAAAAAAAAAAAAAAAAAAAAAAAAAAAAAAAAAAAAAAAAAAAAAAAAAAAAAAAAAAAAAAAAAAAAAAAAAAAAAAAAAAAAAAAAAAAAAAAAAAAAAAAAAAAAAAAAAAAAAAAAAAAAAAAAAAAAAAAAAAAAAAAAAAAAAAAAAAAAAAAAAAAAAAAAAAAAAAAAAAAAAAAAAAAAAAAAAAAAAAAAAAAAAAAAAAAAAAAAAAAAAAAAAAAAAAAAAAAAAAAAAAAAAAAAAAAAAAAAAAAAAAAAAAAAAAAAAAAAAAAAAAAAAAAAAAAAAAAAAAAAAAAAAAAAAAAAAAAAAAAAAAAAAAAAAAAAAAAAAAAAAAAAAAAAAAAAAAAAAAAAAAAAAAAAAAAAAAAAAAAAAAAAAAAAAAAAAAAAAAAAAAAAAAAAAAAAAAAAAAAAAAAAAAAAAAAAAAAAAAAAAAAAAAAAAAAAAAAAAAAAAAAAAAAAAAAAAAAAAAAAAAAAAAAAAAAAAAAAAAAAAAAAAAAAAAAAAAAAAAAAAAAAAAAAAAAAAAAAAAAAAAAAAAAAAAAAAAAAAAAAAAAAAAAAAAAAAAAAAAAAAAAAAAAAAAAAAAAAAAAAAAAAAAAAAAAAAAAAAAAAAAAAAAAAAAAAAAAAAAAAAAAAAAAAAAAAAAAAAAAAAAAAAAAAAAAAAAAAAAAAAAAAAAAAAAAAAAAAAAAAAAAAAAAAAAAAAAAAAAAAAAAAAAAAAAAAAAAAAAAAAAAAAAAAAAAAAAAAAAAAAAAAAAAAAAAAAAAAAAAAAAAAAAAAAAAAAAAAAAAAAAAAAAAAAAAAAAAAAAAAAAAAAAAAAAAAAAAAAAAAAAAAAAAAAAAAAAAAAAAAAAAAAAAAAAAAAAAAAAAAAAAAAAAAAAAAAAAAAAAAAAAAAAAAAAAAAAAAAAAAAAAAAAAAAAAAAAAAAAAAAAAAAAAAAAAAAAAAAAAAAAAAAAAAAAAAAAAAAAAAAAAAAAAAAAAAAAAAAAAAAAAAAAAAAAAAAAAAAAAAAAAAAAAAAAAAAAAAAAAAAAAAAAAAAAAAAAAAAAAAAAAAAAAAAAAAAAAAAAAAAAAAAAAAAAAAAAAAAAAAAAAAAAAAAAAAAAAAAAAAAAAAAAAAAAAAAAAAAAAAAAAAAAAAAAAAAAAAAAAAAAAAAAAAAAAAAAAAAAAAAAAAAAAAAAAAAAAAAAAAAAAAAAAAAAAAAAAAAAAAAAAAAAAAAAAAAAAAAAAAAAAAAAAAAAAAAAAAAAAAAAAAAAAAAAAAAAAAAAAAAAAAAAAAAAAAAAAAAAAAAAAAAAAAAAAAAAAAAAAAAAAAAAAAAAAAAAAAAAAAAAAAAAAAAAAAAAAAAAAAAAAAAAAAAAAAAAAAAAAAAAAAAAAAAAAAAAAAAAAAAAAAAAAAAAAAAAAAAAAAAAAAAAAAAAAAAAAAAAAAAAAAAAAAAAAAAAAAAAAAAAAAAAAAAAAAAAAAAAAAAAAAAAAAAAAAAAAAAAAAAAAAAAAAAAAAAAAAAAAAAAAAAAAAAAAAAAAAAAAAAAAAAAAAAAAAAAAAAAAAAAAAAAAAAAAAAAAAAAAAAAAAAAAAAAAAAAAAAAAAAAAAAAAAAAAAAAAAAAAAAAAAAAAAAAAAAAAAAAAAAAAAAAAAAAAAAAAAAAAAAAAAAAAAAAAAAAAAAAAAAAAAAAAAAAAAAAAAAAAAAAAAAAAAAAAAAAAAAAAAAAAAAAAAAAAAAAAAAAAAAAAAAAAAAAAAAAAAAAAAAAAAAAAAAAAAAAAAAAAAAAAAAAAAAAAAAAAAAAAAAAAAAAAAAAAAAAAAAAAAAAAAAAAAAAAAAAAAAAAAAAAAAAAAAAAAAAAAAAAAAAAAAAAAAAAAAAAAAAAAAAAAAAAAAAAAAAAAAAAAAAAAAAAAAAAAAAAAAAAAAAAAAAAAAAAAAAAAAAAAAAAAAAAAAAAAAAAAAAAAAAAAAAAAAAAAAAAAAAAAAAAAAAAAAAAAAAAAAAAAAAAAAAAAAAAAAAAAAAAAAAAAAAAAAAAAAAAAAAAAAAAAAAAAAAAAAAAAAAAAAAAAAAAAAAAAAAAAAAAAAAAAAAAAAAAAAAAAAAAAAAAAAAAAAAAAAAAAAAAAAAAAAAAAAAAAAAAAAAAAAAAAAAAAAAAAAAAAAAAAAAAAAAAAAAAAAAAAAAAAAAAAAAAAAAAAAAAAAAAAAAAAAAAAAAAAAAAAAAAAAAAAAAAAAAAAAAAAAAAAAAAAAAAAAAAAAAAAAAAAAAAAAAAAAAAAAAAAAAAAAAAAAAAAAAAAAAAAAAAAAAAAAAAAAAAAAAAAAAAAAAAAAAAAAAAAAAAAAAAAAAAAAAAAAAAAAAAAAAAAAAAAAAAAAAAAAAAAAAAAAAAAAAAAAAAAAAAAAAAAAAAAAAAAAAAAAAAAAAAAAAAAAAAAAAAAAAAAAAAAAAAAAAAAAAAAAAAAAAAAAAAAAAAAAAAAAAAAAAAAAAAAAAAAAAAAAAAAAAAAAAAAAAAAAAAAAAAAAAAAAAAAAAAAAAAAAAAAAAAAAAAAAAAAAAAAAAAAAAAAAAAAAAAAAAAAAAAAAAAAAAAAAAAAAAAAAAAAAAAAAAAAAAAAAAAAAAAAAAAAAAAAAAAAAAAAAAAAAAAAAAAAAAAAAAAAAAAAAAAAAAAAAAAAAAAAAAAAAAAAAAAAAAAAAAAAAAAAAAAAAAAAAAAAAAAAAAAAAAAAAAAAAAAAAAAAAAAAAAAAAAAAAAAAAAAAAAAAAAAAAAAAAAAAAAAAAAAAAAAAAAAAAAAAAAAAAAAAAAAAAAAPZYQOxpU0qwcnLOKhjZRsmxVb/sYnnVL+LRdRjjA5rxizl81fv/cilW+loF6WO5GV41tXF66b2QEAnLXF9Gq590ZBY=</c2pa:manifest></metadata><title>Atelier Tracker wordmark — ink</title><path fill="#1C1916" fill-rule="evenodd" d="M60.61 2.16L62.77 0L73.59 15.15L90.91 75.76L99.57 88.74L99.57 97.4L103.9 101.73L103.9 110.39L108.23 114.72L125.54 175.32L134.2 188.31L134.2 196.97L138.53 201.3L138.53 209.96L142.86 214.29L160.17 274.89L168.83 287.88L168.83 300.87L177.49 313.85L177.49 322.51L181.82 326.84L199.13 387.45L207.79 400.43L207.79 413.42L216.45 426.41L233.77 487.01L242.42 500L242.42 512.99L251.08 525.97L251.08 534.63L255.41 538.96L272.73 599.57L281.39 612.55L281.39 625.54L290.04 638.53L298.7 673.16L307.36 686.15L307.36 699.13L311.69 703.46L316.02 725.11L324.68 738.1L329 764.07L337.66 777.06L350.65 824.68L359.31 837.66L359.31 850.65L367.97 863.64L367.97 876.62L376.62 889.61L385.28 924.24L393.94 937.23L393.94 950.22L402.6 963.2L402.6 976.19L406.93 980.52L404.76 987.01L264.07 984.85L264.07 971.86L255.41 958.87L255.41 945.89L251.08 941.56L251.08 932.9L246.75 928.57L246.75 919.91L242.42 915.58L242.42 906.93L238.1 902.6L238.1 893.94L233.77 889.61L233.77 880.95L229.44 876.62L229.44 867.97L216.45 837.66L216.45 824.68L207.79 811.69L207.79 798.7L203.46 794.37L203.46 785.71L199.13 781.39L199.13 772.73L194.81 768.4L194.81 759.74L190.48 755.41L190.48 746.75L186.15 742.42L186.15 733.77L181.82 729.44L181.82 720.78L168.83 690.48L168.83 677.49L160.17 668.83L160.17 651.52L155.84 647.19L155.84 638.53L151.52 634.2L151.52 625.54L147.19 621.21L147.19 612.55L142.86 608.23L142.86 599.57L129.87 569.26L129.87 556.28L121.21 543.29L121.21 530.3L112.55 517.32L112.55 504.33L108.23 500L108.23 491.34L103.9 487.01L103.9 478.35L99.57 474.03L99.57 465.37L86.58 435.06L86.58 422.08L82.25 417.75L82.25 409.09L77.92 404.76L77.92 396.1L73.59 391.77L73.59 383.12L69.26 378.79L69.26 370.13L64.94 365.8L64.94 357.14L60.61 352.81L60.61 344.16L47.62 313.85L47.62 300.87L43.29 296.54L43.29 287.88L38.96 283.55L38.96 274.89L34.63 270.56L34.63 261.9L30.3 257.58L30.3 248.92L25.97 244.59L8.66 183.98L0 175.32L0 166.67L4.33 162.34L12.99 127.71L21.65 114.72L21.65 106.06L25.97 101.73L25.97 93.07L30.3 88.74L47.62 28.14ZM9502.16 2.16L9504.33 0L9515.15 15.15L9532.47 75.76L9541.13 88.74L9541.13 97.4L9545.45 101.73L9545.45 110.39L9549.78 114.72L9567.1 175.32L9575.76 188.31L9575.76 196.97L9580.09 201.3L9580.09 209.96L9584.42 214.29L9601.73 274.89L9610.39 287.88L9610.39 300.87L9619.05 313.85L9619.05 322.51L9623.38 326.84L9640.69 387.45L9649.35 400.43L9649.35 413.42L9658.01 426.41L9675.32 487.01L9683.98 500L9683.98 512.99L9692.64 525.97L9692.64 534.63L9696.97 538.96L9714.29 599.57L9722.94 612.55L9722.94 625.54L9731.6 638.53L9740.26 673.16L9748.92 686.15L9748.92 699.13L9753.25 703.46L9757.58 725.11L9766.23 738.1L9770.56 764.07L9779.22 777.06L9792.21 824.68L9800.87 837.66L9800.87 850.65L9809.52 863.64L9809.52 876.62L9818.18 889.61L9826.84 924.24L9835.5 937.23L9835.5 950.22L9844.16 963.2L9844.16 976.19L9848.48 980.52L9846.32 987.01L9705.63 984.85L9705.63 971.86L9696.97 958.87L9696.97 945.89L9692.64 941.56L9692.64 932.9L9688.31 928.57L9688.31 919.91L9683.98 915.58L9683.98 906.93L9679.65 902.6L9679.65 893.94L9675.32 889.61L9675.32 880.95L9671 876.62L9671 867.97L9658.01 837.66L9658.01 824.68L9649.35 811.69L9649.35 798.7L9645.02 794.37L9645.02 785.71L9640.69 781.39L9640.69 772.73L9636.36 768.4L9636.36 759.74L9632.03 755.41L9632.03 746.75L9627.71 742.42L9627.71 733.77L9623.38 729.44L9623.38 720.78L9610.39 690.48L9610.39 677.49L9601.73 668.83L9601.73 651.52L9597.4 647.19L9597.4 638.53L9593.07 634.2L9593.07 625.54L9588.74 621.21L9588.74 612.55L9584.42 608.23L9584.42 599.57L9571.43 569.26L9571.43 556.28L9562.77 543.29L9562.77 530.3L9554.11 517.32L9554.11 504.33L9549.78 500L9549.78 491.34L9545.45 487.01L9545.45 478.35L9541.13 474.03L9541.13 465.37L9528.14 435.06L9528.14 422.08L9523.81 417.75L9523.81 409.09L9519.48 404.76L9519.48 396.1L9515.15 391.77L9515.15 383.12L9510.82 378.79L9510.82 370.13L9506.49 365.8L9506.49 357.14L9502.16 352.81L9502.16 344.16L9489.18 313.85L9489.18 300.87L9484.85 296.54L9484.85 287.88L9480.52 283.55L9480.52 274.89L9476.19 270.56L9476.19 261.9L9471.86 257.58L9471.86 248.92L9467.53 244.59L9450.22 183.98L9441.56 175.32L9441.56 166.67L9445.89 162.34L9454.55 127.71L9463.2 114.72L9463.2 106.06L9467.53 101.73L9467.53 93.07L9471.86 88.74L9489.18 28.14ZM10619.05 2.16L10651.52 0L10660.17 4.33L10664.5 0L10668.83 4.33L10716.45 4.33L10716.45 8.66L10625.54 8.66L10612.55 17.32L10586.58 21.65L10551.95 38.96L10525.97 60.61L10521.65 60.61L10489.18 93.07L10489.18 97.4L10454.55 140.69L10437.23 175.32L10437.23 183.98L10424.24 205.63L10424.24 214.29L10419.91 218.61L10419.91 227.27L10415.58 231.6L10415.58 240.26L10402.6 270.56L10398.27 305.19L10393.94 309.52L10393.94 322.51L10389.61 326.84L10389.61 357.14L10385.28 361.47L10385.28 378.79L10380.95 383.12L10380.95 435.06L10376.62 439.39L10376.62 560.61L10380.95 564.94L10380.95 616.88L10385.28 621.21L10385.28 642.86L10389.61 647.19L10389.61 673.16L10393.94 677.49L10398.27 712.12L10406.93 729.44L10411.26 759.74L10419.91 772.73L10419.91 781.39L10437.23 816.02L10437.23 824.68L10445.89 841.99L10454.55 850.65L10463.2 872.29L10476.19 885.28L10489.18 906.93L10538.96 952.38L10586.58 978.35L10595.24 978.35L10612.55 987.01L10634.2 987.01L10640.69 993.51L10638.53 1000L10629.87 1000L10625.54 995.67L10586.58 995.67L10582.25 991.34L10569.26 991.34L10564.94 987.01L10547.62 987.01L10543.29 982.68L10521.65 978.35L10508.66 969.7L10500 969.7L10448.05 943.72L10439.39 935.06L10409.09 917.75L10333.33 841.99L10333.33 837.66L10303.03 798.7L10264.07 720.78L10264.07 712.12L10259.74 707.79L10259.74 699.13L10246.75 668.83L10246.75 655.84L10242.42 651.52L10242.42 638.53L10238.1 634.2L10238.1 612.55L10233.77 608.23L10233.77 586.58L10229.44 582.25L10229.44 417.75L10233.77 413.42L10238.1 365.8L10242.42 361.47L10246.75 331.17L10251.08 326.84L10259.74 292.21L10268.4 279.22L10268.4 270.56L10277.06 257.58L10277.06 248.92L10285.71 240.26L10303.03 201.3L10311.69 192.64L10320.35 175.32L10372.29 119.05L10374.46 112.55L10378.79 112.55L10400.43 90.91L10404.76 90.91L10422.08 73.59L10426.41 73.59L10448.05 56.28L10508.66 25.97L10517.32 25.97L10534.63 17.32L10547.62 17.32L10564.94 8.66L10586.58 8.66L10590.91 4.33ZM666.67 15.15L805.19 15.15L803.03 21.65L785.71 25.97L746.75 47.62L718.61 75.76L714.29 88.74L705.63 97.4L696.97 114.72L696.97 123.38L688.31 136.36L683.98 158.01L679.65 162.34L679.65 183.98L675.32 188.31L675.32 209.96L671 214.29L668.83 251.08L666.67 218.61L662.34 214.29L662.34 162.34L666.67 158.01L666.67 32.47L662.34 23.81ZM991.34 15.15L1112.55 15.15L1112.55 976.19L1116.88 980.52L1110.39 987.01L993.51 987.01L987.01 980.52L991.34 971.86ZM1294.37 15.15L1430.74 12.99L1437.23 19.48L1435.06 220.78L1428.57 218.61L1424.24 175.32L1419.91 171L1419.91 158.01L1415.58 153.68L1406.93 119.05L1385.28 80.09L1352.81 47.62L1348.48 47.62L1326.84 30.3L1296.54 21.65ZM1809.52 15.15L1928.57 12.99L1935.06 19.48L1935.06 469.7L1930.74 474.03L1935.06 482.68L1935.06 491.34L1930.74 495.67L1935.06 504.33L1932.9 987.01L1809.52 984.85ZM2207.79 15.15L2372.29 15.15L2372.29 201.3L2376.62 205.63L2372.29 209.96L2370.13 238.1L2367.97 218.61L2363.64 214.29L2363.64 192.64L2359.31 188.31L2359.31 175.32L2354.98 171L2350.65 149.35L2320.35 93.07L2266.23 43.29L2231.6 25.97L2218.61 25.97L2209.96 21.65ZM2774.89 15.15L2896.1 15.15L2896.1 976.19L2900.43 980.52L2893.94 987.01L2777.06 987.01L2770.56 980.52L2774.89 976.19ZM3744.59 15.15L3863.64 12.99L3870.13 19.48L3867.97 987.01L3744.59 984.85ZM4398.27 15.15L4519.48 15.15L4517.32 987.01L4400.43 987.01L4393.94 980.52L4393.94 19.48ZM4792.21 15.15L4954.55 12.99L4961.04 19.48L4958.87 229.44L4952.38 222.94L4952.38 201.3L4948.05 196.97L4948.05 183.98L4943.72 179.65L4943.72 166.67L4935.06 153.68L4935.06 145.02L4900.43 84.42L4876.62 60.61L4872.29 60.61L4846.32 38.96L4820.35 25.97L4794.37 21.65ZM5389.61 15.15L5504.33 12.99L5510.82 19.48L5508.66 987.01L5385.28 984.85L5385.28 19.48ZM6887.45 15.15L7030.3 15.15L7028.14 21.65L7006.49 25.97L6958.87 56.28L6930.74 93.07L6904.76 153.68L6904.76 171L6900.43 175.32L6900.43 188.31L6896.1 192.64L6896.1 227.27L6889.61 242.42ZM7212.12 15.15L7331.17 12.99L7337.66 19.48L7335.5 987.01L7212.12 984.85ZM7515.15 15.15L7655.84 12.99L7662.34 19.48L7660.17 220.78L7649.35 214.29L7649.35 188.31L7645.02 183.98L7645.02 171L7640.69 166.67L7640.69 149.35L7632.03 136.36L7627.71 114.72L7610.39 84.42L7597.4 71.43L7597.4 67.1L7569.26 43.29L7538.96 25.97L7517.32 21.65ZM8060.61 15.15L8181.82 15.15L8179.65 987.01L8056.28 984.85L8056.28 19.48ZM11389.61 15.15L11510.82 15.15L11510.82 538.96L11515.15 543.29L11515.15 551.95L11510.82 556.28L11510.82 976.19L11515.15 980.52L11508.66 987.01L11391.77 987.01L11385.28 980.52L11389.61 976.19ZM12476.19 15.15L12595.24 12.99L12601.73 19.48L12599.57 987.01L12476.19 984.85ZM12874.46 15.15L13038.96 15.15L13038.96 188.31L13043.29 192.64L13043.29 209.96L13038.96 214.29L13036.8 238.1L13034.63 214.29L13030.3 209.96L13030.3 192.64L13025.97 188.31L13025.97 175.32L13021.65 171L13017.32 149.35L12987.01 93.07L12945.89 51.95L12941.56 51.95L12919.91 34.63L12911.26 34.63L12898.27 25.97L12885.28 25.97L12876.62 21.65ZM13467.53 15.15L13588.74 15.15L13588.74 482.68L13593.07 487.01L13588.74 491.34L13586.58 987.01L13469.7 987.01L13463.2 980.52L13467.53 976.19ZM5722.94 19.48L5764.07 17.32L5768.4 21.65L5785.71 21.65L5790.04 25.97L5824.68 30.3L5829 34.63L5850.65 38.96L5902.6 64.94L5911.26 73.59L5915.58 73.59L5961.04 119.05L5982.68 162.34L5982.68 171L5991.34 188.31L5991.34 205.63L5995.67 209.96L5995.67 296.54L5991.34 300.87L5991.34 318.18L5987.01 322.51L5982.68 348.48L5965.37 383.12L5952.38 396.1L5952.38 400.43L5928.57 424.24L5880.95 454.55L5872.29 454.55L5859.31 463.2L5850.65 463.2L5833.33 471.86L5798.7 476.19L5794.37 480.52L5764.07 480.52L5753.25 487.01L5768.4 489.18L5772.73 493.51L5785.71 493.51L5790.04 497.84L5807.36 497.84L5859.31 519.48L5867.97 528.14L5885.28 536.8L5917.75 569.26L5917.75 573.59L5935.06 595.24L5948.05 621.21L5948.05 629.87L5956.71 647.19L5956.71 660.17L5965.37 677.49L5965.37 707.79L5969.7 712.12L5969.7 738.1L5974.03 742.42L5974.03 906.93L5978.35 911.26L5978.35 932.9L5982.68 937.23L5982.68 950.22L5991.34 967.53L6015.15 987.01L6025.97 989.18L6015.15 995.67L5971.86 995.67L5967.53 991.34L5928.57 987.01L5902.6 974.03L5861.47 928.57L5852.81 911.26L5852.81 898.27L5844.16 880.95L5844.16 859.31L5839.83 854.98L5839.83 824.68L5835.5 820.35L5835.5 712.12L5831.17 707.79L5831.17 647.19L5826.84 642.86L5826.84 621.21L5822.51 616.88L5822.51 599.57L5818.18 595.24L5818.18 586.58L5796.54 543.29L5768.4 515.15L5738.1 497.84L5725.11 497.84L5720.78 493.51L5692.64 487.01L5707.79 480.52L5729.44 480.52L5742.42 471.86L5764.07 467.53L5772.73 458.87L5790.04 450.22L5822.51 417.75L5848.48 370.13L5848.48 361.47L5861.47 331.17L5861.47 305.19L5865.8 300.87L5865.8 205.63L5861.47 201.3L5861.47 175.32L5857.14 171L5852.81 145.02L5844.16 132.03L5839.83 114.72L5831.17 106.06L5826.84 93.07L5813.85 80.09L5813.85 75.76L5794.37 56.28L5790.04 56.28L5777.06 43.29ZM8393.94 19.48L8439.39 17.32L8443.72 21.65L8456.71 21.65L8461.04 25.97L8495.67 30.3L8500 34.63L8521.65 38.96L8543.29 51.95L8551.95 51.95L8560.61 60.61L8573.59 64.94L8582.25 73.59L8586.58 73.59L8632.03 119.05L8653.68 158.01L8653.68 166.67L8662.34 183.98L8662.34 201.3L8666.67 205.63L8666.67 300.87L8662.34 305.19L8662.34 322.51L8658.01 326.84L8653.68 348.48L8627.71 396.1L8595.24 428.57L8551.95 454.55L8543.29 454.55L8530.3 463.2L8521.65 463.2L8504.33 471.86L8469.7 476.19L8465.37 480.52L8435.06 480.52L8424.24 487.01L8439.39 489.18L8443.72 493.51L8478.35 497.84L8530.3 519.48L8538.96 528.14L8556.28 536.8L8601.73 586.58L8623.38 629.87L8627.71 655.84L8632.03 660.17L8632.03 673.16L8636.36 677.49L8636.36 707.79L8640.69 712.12L8640.69 733.77L8645.02 738.1L8645.02 906.93L8649.35 911.26L8653.68 950.22L8662.34 967.53L8673.16 978.35L8677.49 978.35L8686.15 987.01L8701.3 989.18L8686.15 995.67L8642.86 995.67L8638.53 991.34L8599.57 987.01L8573.59 974.03L8532.47 928.57L8532.47 919.91L8523.81 906.93L8523.81 898.27L8515.15 880.95L8515.15 859.31L8510.82 854.98L8510.82 820.35L8506.49 816.02L8506.49 686.15L8502.16 681.82L8502.16 638.53L8497.84 634.2L8493.51 599.57L8489.18 595.24L8484.85 573.59L8471.86 547.62L8435.06 510.82L8409.09 497.84L8363.64 487.01L8378.79 480.52L8400.43 480.52L8404.76 476.19L8435.06 467.53L8443.72 458.87L8461.04 450.22L8493.51 417.75L8493.51 413.42L8510.82 391.77L8510.82 383.12L8523.81 361.47L8523.81 348.48L8532.47 331.17L8536.8 279.22L8541.13 274.89L8541.13 231.6L8536.8 227.27L8532.47 175.32L8528.14 171L8523.81 145.02L8515.15 132.03L8515.15 123.38L8506.49 106.06L8484.85 80.09L8484.85 75.76L8465.37 56.28L8461.04 56.28L8435.06 34.63ZM10965.37 19.48L10974.03 19.48L10971.86 251.08L10965.37 235.93L10965.37 214.29L10961.04 209.96L10956.71 188.31L10948.05 175.32L10948.05 166.67L10939.39 158.01L10935.06 145.02L10913.42 119.05L10913.42 114.72L10891.77 93.07L10891.77 84.42L10898.27 82.25L10915.58 64.94L10919.91 64.94L10943.72 41.13L10943.72 36.8ZM13805.19 19.48L13846.32 17.32L13850.65 21.65L13863.64 21.65L13867.97 25.97L13889.61 25.97L13893.94 30.3L13941.56 43.29L13976.19 60.61L14002.16 82.25L14006.49 82.25L14030.3 106.06L14030.3 110.39L14043.29 123.38L14051.95 145.02L14060.61 153.68L14060.61 162.34L14069.26 179.65L14069.26 196.97L14073.59 201.3L14073.59 218.61L14077.92 222.94L14077.92 283.55L14073.59 287.88L14073.59 305.19L14069.26 309.52L14069.26 331.17L14038.96 391.77L13997.84 432.9L13950.22 458.87L13941.56 458.87L13911.26 471.86L13898.27 471.86L13893.94 476.19L13846.32 480.52L13831.17 487.01L13846.32 489.18L13850.65 493.51L13867.97 493.51L13872.29 497.84L13889.61 497.84L13902.6 506.49L13911.26 506.49L13945.89 523.81L13954.55 532.47L13958.87 532.47L14004.33 577.92L14004.33 582.25L14012.99 590.91L14025.97 616.88L14030.3 638.53L14038.96 651.52L14043.29 694.81L14047.62 699.13L14047.62 725.11L14051.95 729.44L14051.95 863.64L14056.28 867.97L14056.28 919.91L14060.61 924.24L14060.61 941.56L14064.94 945.89L14069.26 963.2L14088.74 982.68L14108.23 989.18L14093.07 995.67L14049.78 995.67L14045.45 991.34L14028.14 991.34L14023.81 987.01L13997.84 982.68L13976.19 969.7L13943.72 932.9L13935.06 915.58L13930.74 893.94L13926.41 889.61L13926.41 872.29L13922.08 867.97L13922.08 850.65L13917.75 846.32L13917.75 785.71L13913.42 781.39L13913.42 677.49L13909.09 673.16L13909.09 629.87L13904.76 625.54L13904.76 612.55L13900.43 608.23L13900.43 590.91L13891.77 577.92L13891.77 569.26L13883.12 551.95L13859.31 523.81L13854.98 523.81L13837.66 506.49L13829 506.49L13816.02 497.84L13807.36 497.84L13790.04 489.18L13770.56 487.01L13785.71 484.85L13790.04 480.52L13807.36 480.52L13811.69 476.19L13820.35 476.19L13850.65 463.2L13859.31 454.55L13863.64 454.55L13909.09 409.09L13926.41 374.46L13926.41 365.8L13935.06 352.81L13939.39 318.18L13943.72 313.85L13943.72 283.55L13948.05 279.22L13948.05 222.94L13943.72 218.61L13939.39 171L13935.06 166.67L13930.74 140.69L13909.09 97.4L13867.97 51.95L13863.64 51.95L13850.65 38.96L13824.68 25.97L13811.69 25.97ZM11649.35 370.13L11651.52 367.97L11662.34 383.12L11666.67 396.1L11675.32 404.76L11679.65 417.75L11688.31 426.41L11692.64 439.39L11701.3 448.05L11705.63 461.04L11727.27 491.34L11735.93 512.99L11766.23 556.28L11774.89 577.92L11792.21 599.57L11796.54 612.55L11818.18 642.86L11826.84 664.5L11844.16 686.15L11852.81 707.79L11861.47 716.45L11865.8 729.44L11874.46 738.1L11878.79 751.08L11887.45 759.74L11891.77 772.73L11913.42 803.03L11922.08 824.68L11952.38 867.97L11961.04 889.61L11969.7 898.27L11974.03 911.26L11982.68 919.91L11987.01 932.9L12008.66 963.2L12017.32 980.52L12015.15 987.01L11861.47 984.85L11848.48 954.55L11839.83 945.89L11826.84 915.58L11818.18 906.93L11809.52 885.28L11800.87 876.62L11787.88 846.32L11766.23 816.02L11753.25 785.71L11744.59 777.06L11735.93 755.41L11714.29 725.11L11701.3 694.81L11679.65 664.5L11666.67 634.2L11658.01 625.54L11649.35 603.9L11640.69 595.24L11627.71 564.94L11619.05 556.28L11593.07 504.33L11571.43 474.03L11593.07 439.39L11606.06 426.41L11606.06 422.08L11619.05 409.09L11632.03 387.45ZM2142.86 391.77L2151.52 391.77L2149.35 584.42L2142.86 582.25L2138.53 560.61L2125.54 538.96L2101.73 515.15L2097.4 515.15L2075.76 497.84L2067.1 497.84L2054.11 489.18L2034.63 487.01L2049.78 476.19L2080.09 467.53L2088.74 458.87L2106.06 450.22L2134.2 417.75L2142.86 400.43ZM4731.6 391.77L4740.26 391.77L4738.1 584.42L4731.6 582.25L4718.61 547.62L4694.81 519.48L4690.48 519.48L4664.5 497.84L4655.84 497.84L4642.86 489.18L4623.38 487.01L4625.54 480.52L4655.84 471.86L4694.81 450.22L4718.61 422.08ZM12809.52 391.77L12818.18 391.77L12816.02 584.42L12809.52 582.25L12809.52 569.26L12792.21 538.96L12764.07 510.82L12720.78 489.18L12701.3 487.01L12716.45 476.19L12725.11 476.19L12755.41 463.2L12768.4 450.22L12772.73 450.22L12800.87 417.75L12809.52 400.43ZM4969.7 738.1L4974.03 738.1L4974.03 984.85L4772.73 987.01L4770.56 984.85L4781.39 978.35L4816.02 974.03L4863.64 952.38L4913.42 906.93L4948.05 846.32L4948.05 837.66L4961.04 807.36L4961.04 785.71L4969.7 768.4ZM2385.28 742.42L2389.61 742.42L2389.61 980.52L2383.12 987.01L2188.31 987.01L2186.15 984.85L2196.97 978.35L2231.6 974.03L2283.55 948.05L2333.33 898.27L2359.31 850.65L2359.31 841.99L2372.29 811.69L2372.29 794.37L2376.62 790.04ZM13051.95 742.42L13056.28 742.42L13056.28 980.52L13049.78 987.01L12854.98 987.01L12852.81 984.85L12863.64 978.35L12898.27 974.03L12950.22 948.05L13000 898.27L13025.97 850.65L13025.97 841.99L13038.96 811.69L13038.96 798.7L13043.29 794.37L13043.29 777.06L13047.62 772.73ZM3341.99 759.74L3346.32 759.74L3346.32 980.52L3339.83 987.01L3149.35 987.01L3147.19 984.85L3153.68 978.35L3179.65 978.35L3183.98 974.03L3196.97 974.03L3244.59 952.38L3290.04 911.26L3290.04 906.93L3303.03 893.94L3320.35 859.31L3324.68 833.33L3329 829L3329 816.02L3333.33 811.69L3333.33 798.7L3337.66 794.37L3337.66 768.4ZM10978.35 777.06L10987.01 777.06L10984.85 982.68L10980.52 982.68L10926.41 924.24L10926.41 919.91L10909.09 906.93L10909.09 902.6L10926.41 885.28L10926.41 880.95L10948.05 854.98L10965.37 820.35L10965.37 811.69L10974.03 798.7L10974.03 785.71Z"></path></svg>